PathFileType	4	(X/Y/Z)	/home/nbianco/projects/addbio/data/HamnerRunning2013/Processed/subject11//results/MarkerData/run500.trc
DataRate	CameraRate	NumFrames	NumMarkers	Units	OrigDataRate	OrigDataStartFrame	OrigNumFrames
100	100	10	42	m	100	105	169
Frame#	Time	C7			CLAV			LACR			LASI			LCAL			LFAradius			LFAsuperior			LFAulna			LLEL			LMEL			LMT5			LPSI			LTB1			LTB2			LTB3			LTH1			LTH2			LTH3			LTOE			LUA1			LUA2			LUA3			RACR			RASI			RCAL			RFAradius			RFAsuperior			RFAulna			RLEL			RMEL			RMT5			RPSI			RTB1			RTB2			RTB3			RTH1			RTH2			RTH3			RTOE			RUA1			RUA2			RUA3		
		X1	Y1	Z1	X2	Y2	Z2	X3	Y3	Z3	X4	Y4	Z4	X5	Y5	Z5	X6	Y6	Z6	X7	Y7	Z7	X8	Y8	Z8	X9	Y9	Z9	X10	Y10	Z10	X11	Y11	Z11	X12	Y12	Z12	X13	Y13	Z13	X14	Y14	Z14	X15	Y15	Z15	X16	Y16	Z16	X17	Y17	Z17	X18	Y18	Z18	X19	Y19	Z19	X20	Y20	Z20	X21	Y21	Z21	X22	Y22	Z22	X23	Y23	Z23	X24	Y24	Z24	X25	Y25	Z25	X26	Y26	Z26	X27	Y27	Z27	X28	Y28	Z28	X29	Y29	Z29	X30	Y30	Z30	X31	Y31	Z31	X32	Y32	Z32	X33	Y33	Z33	X34	Y34	Z34	X35	Y35	Z35	X36	Y36	Z36	X37	Y37	Z37	X38	Y38	Z38	X39	Y39	Z39	X40	Y40	Z40	X41	Y41	Z41	X42	Y42	Z42

106	1.18	0.739086	1.50154	-0.359569	0.841172	1.41672	-0.293135	0.843763	1.45912	-0.5004	0.821268	0.986688	-0.452315	0.153951	0.298652	-0.385729	1.049	1.18251	-0.481647	0.94137	1.16139	-0.601254	1.07055	1.12366	-0.516376	0.842992	1.14478	-0.649838	0.802427	1.12305	-0.582597	0.184522	0.109561	-0.430926	0.647728	1.03523	-0.380348	0.428539	0.404874	-0.394279	0.335095	0.380262	-0.45714	0.314748	0.29657	-0.392405	0.666828	0.827572	-0.502165	0.66062	0.689061	-0.47735	0.549571	0.617704	-0.461014	0.235908	0.088623	-0.342856	0.833413	1.36876	-0.584371	0.781495	1.28364	-0.574773	0.815564	1.22578	-0.624324	0.758636	1.49963	-0.18394	0.809219	1.00893	-0.19457	0.87361	0.163127	-0.297132	0.644846	1.11312	-0.0321695	0.541508	1.23042	-0.0552725	0.581614	1.07741	-0.0380156	0.484182	1.31043	-0.101941	0.496471	1.2906	-0.181854	1.03808	0.105694	-0.21249	0.643518	1.03565	-0.276373	1.03293	0.456671	-0.266332	0.9988	0.399341	-0.209299	0.997014	0.291797	-0.278403	0.778973	0.832396	-0.148522	0.909252	0.783275	-0.164914	0.915838	0.658486	-0.202147	1.09703	0.124699	-0.297693	0.664043	1.46316	-0.125228	0.59437	1.41934	-0.179913	0.572636	1.37945	-0.114861
107	1.19	0.741285	1.5033	-0.360326	0.842802	1.41884	-0.293048	0.847164	1.46115	-0.499957	0.822713	0.988151	-0.451822	0.146825	0.327564	-0.390624	1.04847	1.1901	-0.473203	0.946702	1.16563	-0.596536	1.07352	1.13128	-0.506089	0.85076	1.14693	-0.64861	0.807718	1.12506	-0.582883	0.148332	0.135379	-0.432573	0.650162	1.03881	-0.380556	0.418871	0.412679	-0.395179	0.325491	0.392468	-0.459263	0.299104	0.310734	-0.39491	0.665168	0.831997	-0.499884	0.658689	0.691925	-0.477313	0.547428	0.622101	-0.460404	0.197936	0.108222	-0.344757	0.839271	1.37101	-0.584183	0.787304	1.2858	-0.576155	0.822626	1.22801	-0.624615	0.758945	1.50094	-0.184185	0.812817	1.01133	-0.195792	0.924078	0.140325	-0.298831	0.642264	1.11736	-0.0355911	0.537901	1.234	-0.0613244	0.579549	1.08106	-0.0428164	0.481739	1.31389	-0.109909	0.496561	1.29397	-0.18866	1.10199	0.105462	-0.218526	0.646688	1.03988	-0.27658	1.04151	0.453371	-0.266119	1.01561	0.391253	-0.209339	1.02863	0.284485	-0.280242	0.778381	0.834669	-0.148043	0.909283	0.784247	-0.166607	0.913474	0.656222	-0.200462	1.15078	0.13735	-0.302768	0.66333	1.46512	-0.127619	0.595178	1.42158	-0.184238	0.571117	1.38245	-0.120198
108	1.2	0.743817	1.5044	-0.360894	0.844637	1.42019	-0.293079	0.849975	1.46222	-0.49981	0.823212	0.990171	-0.45188	0.138475	0.356858	-0.395238	1.04753	1.19361	-0.466005	0.951234	1.16753	-0.59269	1.07527	1.13497	-0.49733	0.857292	1.14801	-0.647806	0.811546	1.12613	-0.583336	0.11798	0.164749	-0.43412	0.65204	1.0421	-0.381368	0.412987	0.418053	-0.395085	0.320146	0.403983	-0.461151	0.285138	0.325938	-0.396326	0.665379	0.835007	-0.49701	0.661239	0.692101	-0.475957	0.551138	0.622089	-0.460014	0.164236	0.133668	-0.34485	0.843534	1.37206	-0.584259	0.791826	1.28661	-0.577515	0.828684	1.22903	-0.625144	0.760124	1.50158	-0.184219	0.815264	1.01242	-0.19693	0.96924	0.122955	-0.299558	0.642058	1.11977	-0.0385821	0.53665	1.23574	-0.066406	0.579873	1.08289	-0.047042	0.48118	1.31541	-0.116763	0.498559	1.29486	-0.194012	1.16248	0.10637	-0.226694	0.649016	1.04316	-0.276986	1.04712	0.447986	-0.266436	1.02712	0.382828	-0.208708	1.05464	0.27828	-0.281056	0.776763	0.833924	-0.148725	0.908906	0.782315	-0.167261	0.909415	0.649904	-0.197455	1.19334	0.152392	-0.307633	0.663649	1.46596	-0.129284	0.596856	1.42214	-0.187546	0.571116	1.38362	-0.124814
109	1.21	0.746586	1.50465	-0.361205	0.84665	1.42051	-0.293173	0.852339	1.46222	-0.499792	0.823041	0.992451	-0.452454	0.130139	0.387459	-0.399676	1.04634	1.19309	-0.460039	0.954673	1.16689	-0.589608	1.07561	1.13453	-0.490113	0.862044	1.14789	-0.647205	0.813589	1.12629	-0.583716	0.0952178	0.196629	-0.435976	0.653555	1.04457	-0.382069	0.411238	0.421877	-0.394584	0.318843	0.416184	-0.462707	0.27443	0.342853	-0.397288	0.667844	0.835705	-0.494496	0.667612	0.689811	-0.473887	0.559688	0.61803	-0.459975	0.136723	0.163875	-0.344268	0.846461	1.37191	-0.584482	0.795144	1.28646	-0.578625	0.833274	1.22886	-0.625627	0.76226	1.50135	-0.184035	0.816417	1.01224	-0.197778	1.00501	0.111027	-0.299629	0.644457	1.12031	-0.0411747	0.538068	1.23563	-0.0702579	0.582778	1.08283	-0.0506394	0.482604	1.31501	-0.121845	0.502264	1.29352	-0.197587	1.20863	0.110269	-0.233905	0.65054	1.04487	-0.27727	1.05018	0.442113	-0.267428	1.03426	0.375609	-0.208027	1.0734	0.27412	-0.28164	0.775117	0.829801	-0.149644	0.90744	0.776099	-0.166891	0.902899	0.640459	-0.195119	1.22285	0.167326	-0.312258	0.665163	1.46565	-0.130103	0.599406	1.42133	-0.189655	0.572714	1.38297	-0.128451
110	1.22	0.749472	1.50389	-0.361189	0.848757	1.41955	-0.293344	0.854405	1.46099	-0.499769	0.822482	0.994438	-0.45344	0.126158	0.419744	-0.403773	1.04481	1.18874	-0.455311	0.956516	1.1636	-0.587188	1.07431	1.12992	-0.484566	0.864439	1.14643	-0.646654	0.813547	1.12551	-0.583872	0.0802476	0.230925	-0.438517	0.654731	1.04527	-0.381991	0.414077	0.424285	-0.394152	0.322014	0.429145	-0.463672	0.269026	0.361093	-0.398125	0.672681	0.833289	-0.493204	0.676805	0.685615	-0.47197	0.571531	0.610702	-0.460084	0.116397	0.197372	-0.344647	0.848486	1.37064	-0.584681	0.79727	1.28557	-0.579281	0.835934	1.22756	-0.625835	0.765249	1.5	-0.183607	0.816443	1.01114	-0.198434	1.02818	0.103012	-0.299729	0.649512	1.11906	-0.0432864	0.542154	1.23365	-0.0726497	0.588346	1.08087	-0.0533792	0.485871	1.31274	-0.124486	0.50724	1.2903	-0.199142	1.23083	0.118194	-0.236821	0.651117	1.04408	-0.277128	1.05105	0.436992	-0.269201	1.0383	0.370307	-0.208282	1.08415	0.271598	-0.282698	0.773543	0.822743	-0.14946	0.904196	0.765595	-0.165676	0.894927	0.629712	-0.194614	1.23925	0.179597	-0.315465	0.667846	1.46409	-0.130037	0.602724	1.41934	-0.19054	0.575757	1.38063	-0.130822
111	1.23	0.752338	1.5021	-0.360827	0.850855	1.41717	-0.293608	0.856251	1.45846	-0.499691	0.821805	0.995495	-0.454625	0.131284	0.452503	-0.407032	1.04273	1.18079	-0.451944	0.956225	1.15769	-0.585403	1.07123	1.12127	-0.480911	0.864066	1.14355	-0.64612	0.811253	1.12373	-0.58376	0.0720376	0.267764	-0.4417	0.655395	1.04327	-0.381053	0.421547	0.424942	-0.39409	0.330272	0.441538	-0.463966	0.270261	0.379259	-0.398987	0.679564	0.827693	-0.493399	0.687726	0.680016	-0.470747	0.585112	0.601158	-0.460114	0.103093	0.23252	-0.346878	0.849816	1.3683	-0.58472	0.798001	1.28393	-0.579446	0.836361	1.22522	-0.625705	0.768846	1.49736	-0.182934	0.815682	1.00957	-0.19904	1.0375	0.0969485	-0.300609	0.657056	1.11623	-0.0446999	0.548523	1.22982	-0.0733889	0.596434	1.07716	-0.0549047	0.490581	1.30864	-0.124291	0.51287	1.28547	-0.198618	1.22959	0.126642	-0.235369	0.650527	1.04012	-0.276462	1.04977	0.432662	-0.271744	1.03961	0.366193	-0.210007	1.08715	0.269187	-0.284404	0.771688	0.814739	-0.147626	0.899373	0.753314	-0.163702	0.888295	0.620093	-0.195607	1.24415	0.186552	-0.316418	0.671484	1.4611	-0.129124	0.606554	1.41615	-0.190241	0.579915	1.37674	-0.131607
112	1.24	0.755039	1.4993	-0.360144	0.852918	1.41341	-0.293929	0.85787	1.45455	-0.499609	0.821243	0.995102	-0.455767	0.147831	0.483146	-0.408854	1.03986	1.16949	-0.450131	0.953429	1.1494	-0.584322	1.06636	1.10887	-0.479347	0.860805	1.13928	-0.645647	0.80677	1.12093	-0.583419	0.0698381	0.306451	-0.445205	0.655344	1.03836	-0.379707	0.433181	0.423836	-0.394567	0.343678	0.451516	-0.463919	0.278204	0.395651	-0.399912	0.68765	0.819776	-0.494669	0.699323	0.673407	-0.470399	0.599336	0.590525	-0.460141	0.0962383	0.267595	-0.350889	0.850308	1.36479	-0.584593	0.797104	1.28136	-0.579218	0.834493	1.22179	-0.625322	0.772781	1.4933	-0.182081	0.81445	1.00772	-0.199522	1.03353	0.0920143	-0.302822	0.666787	1.11215	-0.0451396	0.556569	1.22423	-0.0723152	0.606759	1.07202	-0.054851	0.496245	1.30268	-0.121335	0.518534	1.2791	-0.196142	1.21419	0.128736	-0.232759	0.648856	1.03321	-0.275456	1.04608	0.42805	-0.274813	1.03747	0.361668	-0.212836	1.08322	0.265171	-0.286618	0.769531	0.808319	-0.144951	0.894351	0.743065	-0.161275	0.885288	0.613483	-0.196939	1.2397	0.184752	-0.316105	0.675787	1.45659	-0.127433	0.610553	1.41157	-0.188722	0.584839	1.37131	-0.13054
113	1.25	0.757411	1.4955	-0.359177	0.855012	1.40844	-0.294257	0.859205	1.44927	-0.499623	0.820935	0.992984	-0.456748	0.17454	0.509078	-0.408818	1.03604	1.15496	-0.450029	0.948077	1.13913	-0.58406	1.05969	1.09312	-0.479942	0.854824	1.13375	-0.645281	0.800381	1.11714	-0.582916	0.0742221	0.344991	-0.448862	0.654531	1.0311	-0.37847	0.448295	0.421567	-0.39565	0.361455	0.457903	-0.464122	0.292006	0.409133	-0.400789	0.695768	0.810809	-0.496287	0.710775	0.66614	-0.470956	0.613809	0.579666	-0.460524	0.0957844	0.300755	-0.356247	0.84969	1.35993	-0.584427	0.794534	1.27768	-0.578724	0.830473	1.21721	-0.624826	0.776858	1.48783	-0.181148	0.812979	1.00544	-0.199668	1.01787	0.0888664	-0.306551	0.678397	1.10714	-0.0444054	0.565755	1.21702	-0.0693164	0.619066	1.06581	-0.0529907	0.502539	1.29472	-0.116105	0.523874	1.27117	-0.191914	1.19281	0.119723	-0.231984	0.646652	1.02442	-0.274512	1.03973	0.421815	-0.277961	1.031	0.355336	-0.216013	1.07318	0.258283	-0.289268	0.767607	0.804415	-0.143112	0.890963	0.737226	-0.159274	0.885343	0.609832	-0.197769	1.22731	0.170859	-0.316606	0.680517	1.45057	-0.12504	0.614419	1.40546	-0.185856	0.590266	1.36426	-0.127545
114	1.26	0.75929	1.49071	-0.357958	0.857193	1.40246	-0.294611	0.860184	1.44277	-0.499819	0.820888	0.989157	-0.457642	0.207492	0.529123	-0.406802	1.03114	1.13726	-0.451666	0.940468	1.12737	-0.584715	1.05122	1.07451	-0.482623	0.846461	1.1272	-0.645007	0.792457	1.11254	-0.582301	0.0864963	0.380492	-0.452777	0.653081	1.02238	-0.377666	0.466406	0.418813	-0.397305	0.382515	0.460783	-0.465012	0.310659	0.41953	-0.401392	0.702842	0.801643	-0.497652	0.721735	0.658404	-0.472335	0.628733	0.568807	-0.461603	0.102416	0.330052	-0.362636	0.847809	1.35358	-0.584403	0.790441	1.27283	-0.578073	0.824569	1.21142	-0.624328	0.78096	1.48109	-0.180211	0.811472	1.00238	-0.199395	0.992275	0.0883733	-0.311471	0.691673	1.10146	-0.0424707	0.575804	1.20837	-0.0643877	0.633231	1.05876	-0.0493643	0.509431	1.28475	-0.109203	0.52903	1.2616	-0.186089	1.16647	0.101074	-0.233261	0.644585	1.01515	-0.274114	1.03091	0.413192	-0.28062	1.02003	0.346725	-0.219256	1.05758	0.248018	-0.292256	0.766356	0.801565	-0.143486	0.89006	0.735033	-0.15872	0.885376	0.607062	-0.198165	1.20711	0.144922	-0.319023	0.685548	1.44311	-0.122058	0.617987	1.39773	-0.18156	0.596054	1.35549	-0.122781
115	1.27	0.760567	1.48497	-0.356543	0.85936	1.3957	-0.295118	0.860727	1.4354	-0.500254	0.821006	0.983873	-0.458546	0.242293	0.543812	-0.403038	1.02514	1.11657	-0.454933	0.931085	1.11454	-0.586361	1.04094	1.05358	-0.487266	0.83609	1.11999	-0.644762	0.783304	1.10736	-0.581593	0.107153	0.410139	-0.457079	0.651184	1.01272	-0.377569	0.487419	0.415639	-0.399417	0.406243	0.461146	-0.466593	0.333472	0.427343	-0.4016	0.708418	0.792256	-0.498412	0.73242	0.650171	-0.474351	0.644583	0.557498	-0.463375	0.116917	0.353733	-0.369788	0.844673	1.34594	-0.584644	0.785009	1.26686	-0.577364	0.817106	1.20459	-0.623878	0.784984	1.47349	-0.179284	0.810062	0.998205	-0.198794	0.95852	0.0902684	-0.316737	0.706538	1.09525	-0.039495	0.586736	1.19839	-0.0577139	0.64921	1.051	-0.0443167	0.517119	1.27292	-0.101054	0.534597	1.25038	-0.17879	1.13254	0.0795568	-0.235008	0.642944	1.00635	-0.274645	1.02028	0.402529	-0.282307	1.00509	0.336495	-0.222855	1.03681	0.2352	-0.295139	0.765386	0.797652	-0.146023	0.890489	0.733456	-0.159701	0.882603	0.602827	-0.198759	1.17871	0.112973	-0.322609	0.690856	1.43426	-0.118649	0.621293	1.38842	-0.175891	0.602217	1.34495	-0.116512
